<svg width="250" height="251" viewBox="0 0 250 251" fill="none" xmlns="http://www.w3.org/2000/svg">
<circle cx="125" cy="125.246" r="125" fill="url(#paint0_linear_5219_24546)"/>
<path d="M215.621 125.246C215.621 175.297 175.047 215.871 124.996 215.871C74.9452 215.871 34.371 175.297 34.371 125.246C34.371 75.1956 74.9452 34.6214 124.996 34.6214C175.047 34.6214 215.621 75.1956 215.621 125.246ZM47.9678 125.246C47.9678 167.788 82.4545 202.275 124.996 202.275C167.537 202.275 202.024 167.788 202.024 125.246C202.024 82.7049 167.537 48.2182 124.996 48.2182C82.4545 48.2182 47.9678 82.7049 47.9678 125.246Z" fill="#FF8081"/>
<path d="M119.905 89.481L121.438 90.22C120.9 91.1505 120.309 92.6832 119.663 94.8181C119.072 96.953 118.426 99.4984 117.727 102.454C117.028 105.356 116.301 108.558 115.548 112.061C114.849 115.565 114.123 119.123 113.37 122.735C112.671 126.294 111.971 129.824 111.272 133.328C110.573 136.776 109.927 139.951 109.336 142.852C111.165 139.294 113.02 135.654 114.903 131.932C116.786 128.155 118.614 124.432 120.389 120.765C122.218 117.097 123.966 113.594 125.634 110.255C127.355 106.861 128.969 103.768 130.475 100.976C131.981 98.1299 133.352 95.6939 134.59 93.6686C135.827 91.5885 136.876 90.0284 137.736 88.9883C138.866 88.9883 140.049 89.0157 141.286 89.0704C142.577 89.0704 143.814 89.1799 144.998 89.3989C146.235 89.6178 147.391 89.9463 148.467 90.3842C149.543 90.8221 150.43 91.4516 151.13 92.2727C150.807 93.477 150.403 95.2287 149.919 97.5277C149.489 99.7721 149.005 102.345 148.467 105.246C147.929 108.147 147.391 111.267 146.853 114.607C146.315 117.891 145.805 121.175 145.32 124.46C144.89 127.689 144.487 130.81 144.11 133.82C143.787 136.776 143.545 139.376 143.384 141.621C144.998 138.227 146.558 134.313 148.064 129.879C149.57 125.39 151.13 120.792 152.743 116.085C154.411 111.322 156.213 106.642 158.149 102.044C160.085 97.4456 162.264 93.3128 164.684 89.6452C166.298 89.0978 167.965 88.6325 169.687 88.2493C171.462 87.8661 173.21 87.7019 174.931 87.7567C176.652 87.7567 178.32 88.003 179.933 88.4957C181.601 88.9336 183.08 89.6999 184.371 90.7947C182.112 93.6959 179.88 96.9803 177.674 100.648C175.469 104.315 173.291 108.202 171.139 112.308C169.041 116.358 166.997 120.573 165.007 124.952C163.071 129.277 161.215 133.601 159.44 137.926C157.665 142.25 156.024 146.493 154.518 150.653C153.012 154.758 151.667 158.645 150.484 162.312C149.032 162.367 147.311 162.477 145.32 162.641C143.33 162.805 141.394 162.778 139.511 162.559C137.682 162.394 136.096 161.902 134.751 161.081C133.46 160.314 132.761 158.973 132.653 157.057C132.438 153.499 132.223 150.297 132.008 147.451C131.846 144.549 131.712 141.703 131.604 138.911C131.497 136.119 131.443 133.218 131.443 130.207C131.497 127.197 131.658 123.803 131.927 120.026C129.076 127.525 126.199 134.559 123.294 141.128C120.389 147.697 117.673 154.266 115.145 160.834C113.585 160.67 112.052 160.561 110.546 160.506C109.094 160.506 107.668 160.369 106.27 160.095C104.871 159.876 103.527 159.493 102.236 158.946C100.999 158.398 99.8421 157.523 98.7663 156.318C98.1746 152.706 97.9326 148.408 98.0401 143.427C98.2015 138.446 98.5511 133.3 99.089 127.99C99.6807 122.626 100.38 117.398 101.187 112.308C101.994 107.217 102.774 102.728 103.527 98.8415C99.0621 99.4984 95.4852 100.456 92.7958 101.715C90.1063 102.92 88.0086 104.398 86.5025 106.149C85.0502 107.901 84.0013 109.926 83.3558 112.225C82.7642 114.47 82.3607 116.96 82.1456 119.697C81.016 119.697 79.9403 119.697 78.9183 119.697C77.9501 119.643 77.0895 119.561 76.3364 119.451C74.8841 119.177 73.5932 118.739 72.4636 118.137C71.3341 117.48 70.4466 116.632 69.8011 115.592C69.1556 114.552 68.806 113.32 68.7522 111.897C68.6984 110.474 68.9943 108.804 69.6397 106.888C70.5003 104.425 71.8988 102.181 73.8352 100.155C75.7716 98.0751 78.0577 96.2413 80.6933 94.6539C83.3289 93.0664 86.2604 91.7527 89.4878 90.7126C92.7151 89.6178 96.05 88.8515 99.4924 88.4135C102.935 87.9209 106.377 87.7567 109.82 87.9209C113.316 88.0851 116.678 88.6051 119.905 89.481Z" fill="#FF8081"/>
<path d="M115.621 0.592773C87.7612 2.65849 62.4427 13.8559 42.6482 31.2027L55.9435 44.498C72.2892 30.5068 92.9331 21.3922 115.621 19.4087V0.592773Z" fill="#FF8081"/>
<path d="M134.371 19.4087V0.592773C162.231 2.65849 187.55 13.8559 207.344 31.2027L194.049 44.498C177.703 30.5068 157.059 21.3922 134.371 19.4087Z" fill="#FF8081"/>
<path d="M230.959 117.434C229.322 94.9144 220.667 74.3418 207.17 57.894L220.486 44.5779C237.325 64.4911 248.048 89.7429 249.756 117.434H230.959Z" fill="#FF8081"/>
<path d="M205.745 194.299C219.414 178.33 228.428 158.257 230.686 136.184H249.524C247.163 163.428 236.062 188.171 219.04 207.594L205.745 194.299Z" fill="#FF8081"/>
<path d="M134.371 231.084C156.28 229.169 176.282 220.604 192.349 207.42L205.665 220.736C186.127 237.258 161.449 247.892 134.371 249.9V231.084Z" fill="#FF8081"/>
<path d="M57.6436 207.42C73.7103 220.604 93.7127 229.169 115.621 231.084V249.9C88.5429 247.892 63.8656 237.258 44.3275 220.736L57.6436 207.42Z" fill="#FF8081"/>
<path d="M19.3065 136.184C21.5638 158.257 30.5783 178.33 44.2477 194.299L30.9524 207.594C13.9304 188.171 2.82968 163.428 0.468066 136.184H19.3065Z" fill="#FF8081"/>
<path d="M42.8228 57.894C29.3257 74.3418 20.6699 94.9143 19.0333 117.434H0.236328C1.94395 89.7429 12.6671 64.4911 29.5067 44.5779L42.8228 57.894Z" fill="#FF8081"/>
<defs>
<linearGradient id="paint0_linear_5219_24546" x1="61.841" y1="-8.70724" x2="253.531" y2="315.154" gradientUnits="userSpaceOnUse">
<stop stop-color="#A50802"/>
<stop offset="0.238267" stop-color="#FF3A39"/>
<stop offset="0.59" stop-color="#7D080A"/>
<stop offset="1" stop-color="#A00002"/>
</linearGradient>
</defs>
</svg>
