<svg width="250" height="251" viewBox="0 0 250 251" fill="none" xmlns="http://www.w3.org/2000/svg">
<circle cx="125" cy="125.033" r="125" fill="url(#paint0_linear_5219_24544)"/>
<path d="M215.621 125.034C215.621 175.084 175.047 215.659 124.996 215.659C74.9452 215.659 34.371 175.084 34.371 125.034C34.371 74.9827 74.9452 34.4085 124.996 34.4085C175.047 34.4085 215.621 74.9827 215.621 125.034ZM47.9678 125.034C47.9678 167.575 82.4545 202.062 124.996 202.062C167.537 202.062 202.024 167.575 202.024 125.034C202.024 82.492 167.537 48.0053 124.996 48.0053C82.4545 48.0053 47.9678 82.492 47.9678 125.034Z" fill="#9EDCFF"/>
<path d="M119.905 89.2681L121.438 90.0071C120.9 90.9376 120.309 92.4704 119.663 94.6052C119.072 96.7401 118.426 99.2855 117.727 102.241C117.028 105.143 116.301 108.345 115.548 111.848C114.849 115.352 114.123 118.91 113.37 122.523C112.671 126.081 111.971 129.611 111.272 133.115C110.573 136.563 109.927 139.738 109.336 142.639C111.165 139.081 113.02 135.441 114.903 131.719C116.786 127.942 118.614 124.219 120.389 120.552C122.218 116.884 123.966 113.381 125.634 110.042C127.355 106.648 128.969 103.555 130.475 100.763C131.981 97.917 133.352 95.4811 134.59 93.4557C135.827 91.3756 136.876 89.8155 137.736 88.7754C138.866 88.7754 140.049 88.8028 141.286 88.8575C142.577 88.8575 143.814 88.967 144.998 89.186C146.235 89.4049 147.391 89.7334 148.467 90.1713C149.543 90.6092 150.43 91.2387 151.13 92.0598C150.807 93.2641 150.403 95.0158 149.919 97.3148C149.489 99.5592 149.005 102.132 148.467 105.033C147.929 107.934 147.391 111.055 146.853 114.394C146.315 117.678 145.805 120.962 145.32 124.247C144.89 127.477 144.487 130.597 144.11 133.607C143.787 136.563 143.545 139.163 143.384 141.408C144.998 138.014 146.558 134.1 148.064 129.666C149.57 125.177 151.13 120.579 152.743 115.872C154.411 111.109 156.213 106.429 158.149 101.831C160.085 97.2327 162.264 93.0999 164.684 89.4323C166.298 88.8849 167.965 88.4196 169.687 88.0364C171.462 87.6533 173.21 87.489 174.931 87.5438C176.652 87.5438 178.32 87.7901 179.933 88.2828C181.601 88.7207 183.08 89.487 184.371 90.5818C182.112 93.483 179.88 96.7674 177.674 100.435C175.469 104.103 173.291 107.989 171.139 112.095C169.041 116.145 166.997 120.36 165.007 124.74C163.071 129.064 161.215 133.388 159.44 137.713C157.665 142.037 156.024 146.28 154.518 150.44C153.012 154.545 151.667 158.432 150.484 162.099C149.032 162.154 147.311 162.264 145.32 162.428C143.33 162.592 141.394 162.565 139.511 162.346C137.682 162.182 136.096 161.689 134.751 160.868C133.46 160.101 132.761 158.76 132.653 156.844C132.438 153.286 132.223 150.084 132.008 147.238C131.846 144.336 131.712 141.49 131.604 138.698C131.497 135.906 131.443 133.005 131.443 129.995C131.497 126.984 131.658 123.59 131.927 119.813C129.076 127.312 126.199 134.346 123.294 140.915C120.389 147.484 117.673 154.053 115.145 160.622C113.585 160.457 112.052 160.348 110.546 160.293C109.094 160.293 107.668 160.156 106.27 159.883C104.871 159.664 103.527 159.28 102.236 158.733C100.999 158.186 99.8421 157.31 98.7663 156.105C98.1746 152.493 97.9326 148.196 98.0401 143.214C98.2015 138.233 98.5511 133.087 99.089 127.778C99.6807 122.413 100.38 117.185 101.187 112.095C101.994 107.004 102.774 102.515 103.527 98.6286C99.0621 99.2855 95.4852 100.243 92.7958 101.502C90.1063 102.707 88.0086 104.185 86.5025 105.936C85.0502 107.688 84.0013 109.713 83.3558 112.012C82.7642 114.257 82.3607 116.747 82.1456 119.484C81.016 119.484 79.9403 119.484 78.9183 119.484C77.9501 119.43 77.0895 119.348 76.3364 119.238C74.8841 118.964 73.5932 118.527 72.4636 117.924C71.3341 117.268 70.4466 116.419 69.8011 115.379C69.1556 114.339 68.806 113.107 68.7522 111.684C68.6984 110.261 68.9943 108.591 69.6397 106.675C70.5003 104.212 71.8988 101.968 73.8352 99.9424C75.7716 97.8622 78.0577 96.0285 80.6933 94.441C83.3289 92.8535 86.2604 91.5398 89.4878 90.4997C92.7151 89.4049 96.05 88.6386 99.4924 88.2007C102.935 87.708 106.377 87.5438 109.82 87.708C113.316 87.8722 116.678 88.3922 119.905 89.2681Z" fill="#9EDCFF"/>
<path d="M115.621 0.379883C87.7612 2.4456 62.4427 13.643 42.6482 30.9898L55.9435 44.2851C72.2892 30.2939 92.9331 21.1793 115.621 19.1958V0.379883Z" fill="#9EDCFF"/>
<path d="M134.371 19.1958V0.379883C162.231 2.4456 187.55 13.643 207.344 30.9898L194.049 44.2851C177.703 30.2939 157.059 21.1793 134.371 19.1958Z" fill="#9EDCFF"/>
<path d="M230.959 117.221C229.322 94.7015 220.667 74.1289 207.17 57.6811L220.486 44.365C237.325 64.2782 248.048 89.53 249.756 117.221H230.959Z" fill="#9EDCFF"/>
<path d="M205.745 194.086C219.414 178.117 228.428 158.044 230.686 135.971H249.524C247.163 163.215 236.062 187.958 219.04 207.382L205.745 194.086Z" fill="#9EDCFF"/>
<path d="M134.371 230.871C156.28 228.956 176.282 220.391 192.349 207.207L205.665 220.523C186.127 237.045 161.449 247.68 134.371 249.687V230.871Z" fill="#9EDCFF"/>
<path d="M57.6436 207.207C73.7103 220.391 93.7127 228.956 115.621 230.871V249.687C88.5429 247.68 63.8656 237.045 44.3275 220.523L57.6436 207.207Z" fill="#9EDCFF"/>
<path d="M19.3065 135.971C21.5638 158.044 30.5783 178.117 44.2477 194.086L30.9524 207.382C13.9304 187.958 2.82968 163.215 0.468066 135.971H19.3065Z" fill="#9EDCFF"/>
<path d="M42.8228 57.6811C29.3257 74.1289 20.6699 94.7015 19.0333 117.221H0.236328C1.94395 89.53 12.6671 64.2782 29.5067 44.365L42.8228 57.6811Z" fill="#9EDCFF"/>
<defs>
<linearGradient id="paint0_linear_5219_24544" x1="61.841" y1="-8.92013" x2="235.818" y2="242.876" gradientUnits="userSpaceOnUse">
<stop stop-color="#3C83C4"/>
<stop offset="0.275" stop-color="#398BD8"/>
<stop offset="0.53" stop-color="#4198FF"/>
<stop offset="0.73" stop-color="#369DE8"/>
<stop offset="1" stop-color="#3377DD"/>
</linearGradient>
</defs>
</svg>
